<?xml version="1.0" encoding="UTF-8" standalone="no"?>
<!-- Created with Inkscape (http://www.inkscape.org/) -->
<svg version="1.1" id="svg2" width="171.90668" height="46.946667" viewBox="0 0 171.90668 46.946667" sodipodi:docname="topten_ch_2.eps" xmlns:inkscape="http://www.inkscape.org/namespaces/inkscape" xmlns:sodipodi="http://sodipodi.sourceforge.net/DTD/sodipodi-0.dtd" xmlns="http://www.w3.org/2000/svg" xmlns:svg="http://www.w3.org/2000/svg">
  <defs id="defs6"/>
  <sodipodi:namedview id="namedview4" pagecolor="#ffffff" bordercolor="#000000" borderopacity="0.25" inkscape:showpageshadow="2" inkscape:pageopacity="0.0" inkscape:pagecheckerboard="0" inkscape:deskcolor="#d1d1d1"/>
  <g id="g8" inkscape:groupmode="layer" inkscape:label="ink_ext_XXXXXX" transform="matrix(1.3333333,0,0,-1.3333333,0,46.946667)">
    <g id="g10" transform="scale(0.1)">
      <path d="M 601.754,49.7734 H 49.8047 V 302.309 H 601.754 Z" style="fill:none;stroke:#ffffff;stroke-width:5;stroke-linecap:butt;stroke-linejoin:miter;stroke-miterlimit:4;stroke-dasharray:none;stroke-opacity:1" id="path12"/>
      <path d="m 232.355,239.777 h -47.261 v 47.258 h 47.261 v -47.258" style="fill:#ffffff;fill-opacity:1;fill-rule:nonzero;stroke:none" id="path14"/>
      <path d="m 172.34,239.777 h -47.258 v 47.258 h 47.258 v -47.258" style="fill:#d9cf70;fill-opacity:1;fill-rule:nonzero;stroke:none" id="path16"/>
      <path d="M 112.328,239.777 H 65.0742 v 47.258 h 47.2538 v -47.258" style="fill:#ffffff;fill-opacity:1;fill-rule:nonzero;stroke:none" id="path18"/>
      <path d="m 302.223,201.523 v 20.36 h 13.34 v 18.722 l 32.992,14.735 v -33.457 h 17.082 v -20.36 H 348.555 V 138.34 c 0,-3.899 0.117,-6.633 0.351,-8.184 0.235,-1.562 1.129,-3.047 2.692,-4.457 1.558,-1.394 4.05,-2.097 7.484,-2.097 2.809,0 4.762,0.144 5.852,0.468 v -20.359 c -7.336,-0.781 -13.024,-1.176 -17.082,-1.176 -6.707,0 -12.364,0.981 -16.961,2.934 -4.606,1.941 -7.922,4.48 -9.95,7.597 -2.031,3.125 -3.429,5.926 -4.211,8.426 -0.781,2.492 -1.167,4.914 -1.167,7.254 v 72.777 h -13.34" style="fill:#d9cf70;fill-opacity:1;fill-rule:nonzero;stroke:none" id="path20"/>
      <path d="m 413.844,130.859 c 2.027,-5.625 6.082,-8.429 12.168,-8.429 6.082,0 10.136,2.804 12.168,8.429 2.027,5.614 3.043,17.391 3.043,35.332 0,13.719 -0.899,23.321 -2.692,28.778 -1.797,5.461 -5.968,8.191 -12.519,8.191 -6.555,0 -10.727,-2.73 -12.52,-8.191 -1.797,-5.457 -2.691,-15.059 -2.691,-28.778 0,-17.941 1.012,-29.718 3.043,-35.332 z m 33.461,-26.328 c -5.934,-2.109 -13.028,-3.164 -21.293,-3.164 -8.274,0 -15.367,1.055 -21.293,3.164 -5.934,2.11 -10.614,4.832 -14.043,8.192 -3.434,3.351 -6.125,7.871 -8.074,13.562 -1.954,5.695 -3.235,11.391 -3.86,17.082 -0.625,5.696 -0.933,12.676 -0.933,20.949 0,9.364 0.504,17.118 1.519,23.282 1.016,6.16 3.078,12.285 6.199,18.367 3.121,6.086 8.032,10.644 14.743,13.691 6.707,3.039 15.289,4.563 25.742,4.563 10.449,0 19.027,-1.524 25.738,-4.563 6.707,-3.047 11.621,-7.605 14.746,-13.691 3.113,-6.082 5.18,-12.207 6.195,-18.367 1.016,-6.164 1.524,-13.918 1.524,-23.282 0,-8.273 -0.313,-15.253 -0.938,-20.949 -0.625,-5.691 -1.91,-11.387 -3.859,-17.082 -1.953,-5.691 -4.641,-10.211 -8.074,-13.562 -3.434,-3.36 -8.11,-6.082 -14.039,-8.192" style="fill:#d9cf70;fill-opacity:1;fill-rule:nonzero;stroke:none" id="path22"/>
      <path d="m 543.945,121.727 c 5.774,0 9.555,3.078 11.352,9.25 1.793,6.152 2.691,17.109 2.691,32.871 0,17 -0.937,27.761 -2.808,32.293 -2.336,4.992 -6.082,7.558 -11.235,7.726 -2.183,0 -4.058,-0.351 -5.613,-1.054 -1.559,-0.704 -2.809,-2.032 -3.742,-3.989 -0.938,-1.953 -1.68,-3.777 -2.227,-5.496 -0.547,-1.719 -0.933,-4.441 -1.168,-8.183 -0.234,-3.75 -0.39,-6.786 -0.468,-9.129 -0.082,-2.336 -0.118,-6.008 -0.118,-10.996 0,-0.469 0,-0.86 0,-1.172 0,-15.762 0.895,-26.719 2.692,-32.871 1.793,-6.172 5.344,-9.25 10.644,-9.25 z m -46.328,100.156 h 31.352 v -13.106 h 0.469 c 5.46,10.293 14.742,15.442 27.847,15.442 4.524,0 8.578,-0.742 12.168,-2.219 3.59,-1.484 6.555,-3.242 8.891,-5.273 2.34,-2.024 4.293,-4.911 5.851,-8.653 1.559,-3.75 2.731,-7.019 3.512,-9.832 0.781,-2.804 1.359,-6.664 1.758,-11.582 0.383,-4.914 0.617,-8.652 0.695,-11.23 0.078,-2.571 0.117,-6.282 0.117,-11.114 0,-1.093 0,-1.875 0,-2.343 0,-5.461 0,-9.16 0,-11.114 0,-1.953 -0.195,-5.656 -0.586,-11.117 -0.39,-5.457 -0.929,-9.441 -1.632,-11.929 -0.704,-2.5 -1.836,-5.774 -3.395,-9.825 -1.562,-4.062 -3.473,-7.062 -5.734,-9.015 -2.258,-1.953 -5.188,-3.711 -8.774,-5.262 -3.59,-1.555 -7.644,-2.344 -12.168,-2.344 -11.855,0 -20.824,4.531 -26.91,13.574 h -0.469 V 52.9297 H 497.617 V 221.883" style="fill:#d9cf70;fill-opacity:1;fill-rule:nonzero;stroke:none" id="path24"/>
      <path d="m 613.449,201.523 v 20.36 h 13.34 v 18.722 l 32.992,14.735 v -33.457 h 17.078 v -20.36 H 659.781 V 138.34 c 0,-3.899 0.117,-6.633 0.352,-8.184 0.234,-1.562 1.129,-3.047 2.691,-4.457 1.555,-1.394 4.051,-2.097 7.485,-2.097 2.808,0 4.761,0.144 5.847,0.468 v -20.359 c -7.332,-0.781 -13.019,-1.176 -17.078,-1.176 -6.711,0 -12.363,0.981 -16.965,2.934 -4.601,1.941 -7.918,4.48 -9.945,7.597 -2.031,3.125 -3.434,5.926 -4.215,8.426 -0.781,2.492 -1.164,4.914 -1.164,7.254 v 72.777 h -13.34" style="fill:#ffffff;fill-opacity:1;fill-rule:nonzero;stroke:none" id="path26"/>
      <path d="m 722.262,176.016 h 30.183 c 0,3.582 0,6.121 0,7.605 0,1.484 -0.273,3.82 -0.82,7.024 -0.547,3.191 -1.289,5.535 -2.219,7.019 -0.937,1.477 -2.457,2.883 -4.566,4.207 -2.106,1.32 -4.645,1.996 -7.602,1.996 -3.593,0 -6.476,-0.859 -8.66,-2.582 -2.187,-1.715 -3.711,-4.324 -4.562,-7.84 -0.86,-3.504 -1.368,-6.355 -1.52,-8.535 -0.16,-2.187 -0.234,-5.144 -0.234,-8.894 z m 63.179,-18.489 h -63.179 c 0,-4.675 0.117,-8.582 0.351,-11.699 0.235,-3.125 0.778,-6.75 1.637,-10.879 0.852,-4.14 2.375,-7.254 4.563,-9.363 2.183,-2.102 4.992,-3.156 8.425,-3.156 9.36,0 14.035,7.019 14.035,21.054 h 33.465 c -0.468,-13.25 -4.679,-23.476 -12.636,-30.644 -8.114,-7.645 -19.739,-11.473 -34.864,-11.473 -8.273,0 -15.367,1.055 -21.297,3.164 -5.929,2.11 -10.609,4.832 -14.043,8.192 -3.429,3.351 -6.121,7.871 -8.07,13.562 -1.953,5.695 -3.238,11.391 -3.863,17.082 -0.625,5.696 -0.93,12.676 -0.93,20.949 0,9.364 0.5,17.118 1.516,23.282 1.015,6.16 3.082,12.285 6.203,18.367 3.121,6.086 8.031,10.644 14.742,13.691 6.707,3.039 15.285,4.563 25.742,4.563 8.575,0 15.946,-1.133 22.114,-3.391 6.156,-2.265 10.957,-5.262 14.39,-9.012 3.426,-3.742 6.082,-8.625 7.953,-14.621 1.875,-6.004 3.043,-12.019 3.512,-18.015 0.469,-6.02 0.547,-13.227 0.234,-21.653" style="fill:#ffffff;fill-opacity:1;fill-rule:nonzero;stroke:none" id="path28"/>
      <path d="m 841.602,221.883 v -11.934 h 0.468 c 3.118,5.149 7.016,8.809 11.7,10.996 4.367,2.176 9.75,3.274 16.148,3.274 8.262,0 15.242,-2.309 20.937,-6.906 5.692,-4.598 8.543,-10.879 8.543,-18.836 v -94.766 h -32.996 v 81.434 c 0,6.085 -0.859,10.722 -2.57,13.918 -1.719,3.203 -4.992,4.804 -9.828,4.804 -4.84,0 -8.113,-1.601 -9.828,-4.804 -1.719,-3.196 -2.574,-7.833 -2.574,-13.918 v -81.434 h -32.993 v 118.172 h 32.993" style="fill:#ffffff;fill-opacity:1;fill-rule:nonzero;stroke:none" id="path30"/>
      <path d="m 924.438,134.598 h 28.078 v -30.887 h -28.078 v 30.887" style="fill:#ffffff;fill-opacity:1;fill-rule:nonzero;stroke:none" id="path32"/>
      <path d="m 1070.92,179.766 h -32.99 c 0,8.574 -1.14,14.617 -3.39,18.132 -2.27,3.508 -6.06,5.262 -11.36,5.262 -6.55,0 -10.72,-2.73 -12.52,-8.191 -1.79,-5.457 -2.69,-15.059 -2.69,-28.778 0,-17.941 1.02,-29.718 3.04,-35.332 2.03,-5.625 6.09,-8.429 12.17,-8.429 10.15,0 15.21,8.261 15.21,24.804 h 32.99 c 0,-30.574 -16.06,-45.867 -48.2,-45.867 -8.26,0 -15.36,1.055 -21.29,3.164 -5.929,2.11 -10.617,4.832 -14.042,8.192 -3.43,3.351 -6.125,7.871 -8.067,13.562 -1.953,5.695 -3.242,11.391 -3.867,17.082 -0.625,5.696 -0.937,12.676 -0.937,20.949 0,9.364 0.507,17.118 1.523,23.282 1.016,6.16 3.074,12.285 6.199,18.367 3.117,6.086 8.039,10.644 14.746,13.691 6.705,3.039 15.285,4.563 25.735,4.563 31.83,0 47.74,-14.824 47.74,-44.453" style="fill:#ffffff;fill-opacity:1;fill-rule:nonzero;stroke:none" id="path34"/>
      <path d="m 1185.58,103.711 h -33 v 81.434 c 0,6.085 -0.86,10.722 -2.56,13.918 -1.72,3.203 -5,4.804 -9.84,4.804 -4.83,0 -8.1,-1.601 -9.82,-4.804 -1.72,-3.196 -2.58,-7.833 -2.58,-13.918 v -81.434 h -32.99 v 168.945 h 32.99 v -62.707 h 0.47 c 3.12,5.149 7.02,8.809 11.7,10.996 4.36,2.176 9.75,3.274 16.15,3.274 8.26,0 15.24,-2.309 20.94,-6.906 5.69,-4.598 8.54,-10.879 8.54,-18.836 v -94.766" style="fill:#ffffff;fill-opacity:1;fill-rule:nonzero;stroke:none" id="path36"/>
    </g>
  </g>
<script xmlns=""/></svg>